<mxfile host="app.diagrams.net" modified="2023-11-03T16:31:25.589Z" agent="Mozilla/5.0 (Windows NT 10.0; Win64; x64) AppleWebKit/537.36 (KHTML, like Gecko) Chrome/118.0.0.0 Safari/537.36" etag="MNJG83xyUfWgNBW9L4YR" version="22.0.8" type="device">
  <diagram name="Страница — 1" id="T2BbabLuzaR6eZVmwBoE">
    <mxGraphModel dx="1403" dy="1675" grid="1" gridSize="10" guides="1" tooltips="1" connect="1" arrows="1" fold="1" page="1" pageScale="1" pageWidth="1169" pageHeight="827" math="0" shadow="0">
      <root>
        <mxCell id="0" />
        <mxCell id="1" parent="0" />
        <mxCell id="VOGuNjjzXq6FGKE1rpnF-1" value="Authorizations Server" style="swimlane;childLayout=stackLayout;resizeParent=1;resizeParentMax=0;startSize=20;html=1;" vertex="1" parent="1">
          <mxGeometry x="10" y="30" width="1370" height="780" as="geometry" />
        </mxCell>
        <mxCell id="VOGuNjjzXq6FGKE1rpnF-2" value="Adapters" style="swimlane;startSize=20;html=1;" vertex="1" parent="VOGuNjjzXq6FGKE1rpnF-1">
          <mxGeometry y="20" width="360" height="760" as="geometry" />
        </mxCell>
        <mxCell id="VOGuNjjzXq6FGKE1rpnF-7" value="&lt;p style=&quot;margin:0px;margin-top:4px;text-align:center;&quot;&gt;&lt;b&gt;AccessManager&lt;/b&gt;&lt;/p&gt;&lt;hr size=&quot;1&quot;&gt;&lt;p style=&quot;margin:0px;margin-left:4px;&quot;&gt;&lt;/p&gt;&lt;p style=&quot;margin:0px;margin-left:4px;&quot;&gt;+ getAuthorizationToken(User): Token&lt;/p&gt;&lt;p style=&quot;margin:0px;margin-left:4px;&quot;&gt;+ checkToken(Token): boolean&lt;/p&gt;&lt;p style=&quot;margin:0px;margin-left:4px;&quot;&gt;+ removeToken(Token): void&lt;/p&gt;" style="verticalAlign=top;align=left;overflow=fill;fontSize=12;fontFamily=Helvetica;html=1;whiteSpace=wrap;" vertex="1" parent="VOGuNjjzXq6FGKE1rpnF-2">
          <mxGeometry x="50" y="75" width="240" height="90" as="geometry" />
        </mxCell>
        <mxCell id="VOGuNjjzXq6FGKE1rpnF-18" value="" style="endArrow=block;dashed=1;endFill=0;endSize=12;html=1;rounded=0;entryX=-0.01;entryY=0.365;entryDx=0;entryDy=0;entryPerimeter=0;" edge="1" parent="VOGuNjjzXq6FGKE1rpnF-2" target="VOGuNjjzXq6FGKE1rpnF-5">
          <mxGeometry width="160" relative="1" as="geometry">
            <mxPoint x="290" y="100" as="sourcePoint" />
            <mxPoint x="450" y="100" as="targetPoint" />
          </mxGeometry>
        </mxCell>
        <mxCell id="VOGuNjjzXq6FGKE1rpnF-3" value="Logics" style="swimlane;startSize=20;html=1;" vertex="1" parent="VOGuNjjzXq6FGKE1rpnF-1">
          <mxGeometry x="360" y="20" width="570" height="760" as="geometry" />
        </mxCell>
        <mxCell id="VOGuNjjzXq6FGKE1rpnF-5" value="&lt;p style=&quot;margin:0px;margin-top:4px;text-align:center;&quot;&gt;&lt;i&gt;&amp;lt;&amp;lt;Interface&amp;gt;&amp;gt;&lt;/i&gt;&lt;br&gt;&lt;b&gt;IAccess&lt;/b&gt;&lt;/p&gt;&lt;hr size=&quot;1&quot;&gt;&lt;p style=&quot;margin:0px;margin-left:4px;&quot;&gt;&lt;/p&gt;&lt;p style=&quot;border-color: var(--border-color); margin: 0px 0px 0px 4px;&quot;&gt;+ getAuthorizationToken(User): Token&lt;/p&gt;&lt;p style=&quot;border-color: var(--border-color); margin: 0px 0px 0px 4px;&quot;&gt;+ checkToken(Token): boolean&lt;/p&gt;&lt;p style=&quot;border-color: var(--border-color); margin: 0px 0px 0px 4px;&quot;&gt;+ removeToken(Token): void&lt;/p&gt;" style="verticalAlign=top;align=left;overflow=fill;fontSize=12;fontFamily=Helvetica;html=1;whiteSpace=wrap;" vertex="1" parent="VOGuNjjzXq6FGKE1rpnF-3">
          <mxGeometry x="25" y="50" width="215" height="140" as="geometry" />
        </mxCell>
        <mxCell id="VOGuNjjzXq6FGKE1rpnF-6" value="&lt;p style=&quot;margin:0px;margin-top:4px;text-align:center;&quot;&gt;&lt;i&gt;&amp;lt;&amp;lt;Interface&amp;gt;&amp;gt;&lt;/i&gt;&lt;br&gt;&lt;b&gt;IRepo&lt;/b&gt;&lt;/p&gt;&lt;hr size=&quot;1&quot;&gt;&lt;p style=&quot;margin:0px;margin-left:4px;&quot;&gt;&lt;/p&gt;&lt;p style=&quot;margin:0px;margin-left:4px;&quot;&gt;+ getUser(int): User&lt;br&gt;+ getRobot(int): Robot&lt;/p&gt;" style="verticalAlign=top;align=left;overflow=fill;fontSize=12;fontFamily=Helvetica;html=1;whiteSpace=wrap;" vertex="1" parent="VOGuNjjzXq6FGKE1rpnF-3">
          <mxGeometry x="290" y="50" width="230" height="140" as="geometry" />
        </mxCell>
        <mxCell id="VOGuNjjzXq6FGKE1rpnF-21" style="edgeStyle=orthogonalEdgeStyle;rounded=0;orthogonalLoop=1;jettySize=auto;html=1;entryX=0.486;entryY=0.045;entryDx=0;entryDy=0;entryPerimeter=0;" edge="1" parent="VOGuNjjzXq6FGKE1rpnF-3" source="VOGuNjjzXq6FGKE1rpnF-8" target="VOGuNjjzXq6FGKE1rpnF-10">
          <mxGeometry relative="1" as="geometry">
            <mxPoint x="280" y="480" as="targetPoint" />
            <Array as="points" />
          </mxGeometry>
        </mxCell>
        <mxCell id="VOGuNjjzXq6FGKE1rpnF-8" value="&lt;p style=&quot;margin:0px;margin-top:4px;text-align:center;&quot;&gt;&lt;b&gt;AccessController&lt;/b&gt;&lt;/p&gt;&lt;hr size=&quot;1&quot;&gt;&lt;p style=&quot;margin:0px;margin-left:4px;&quot;&gt;&lt;span style=&quot;background-color: initial;&quot;&gt;- access: iAccess&lt;/span&gt;&lt;/p&gt;&lt;p style=&quot;margin:0px;margin-left:4px;&quot;&gt;&lt;span style=&quot;background-color: initial;&quot;&gt;- repo: iRepo&lt;/span&gt;&lt;/p&gt;&lt;hr size=&quot;1&quot;&gt;&lt;p style=&quot;margin:0px;margin-left:4px;&quot;&gt;+ AccessController(iAccess, iRepo)&lt;/p&gt;&lt;p style=&quot;margin:0px;margin-left:4px;&quot;&gt;+ checkAutorization(User): boolean&lt;/p&gt;&lt;p style=&quot;margin:0px;margin-left:4px;&quot;&gt;+ createAutorization(User): void&lt;/p&gt;&lt;p style=&quot;margin:0px;margin-left:4px;&quot;&gt;+ removeAutorization(User): void&lt;/p&gt;" style="verticalAlign=top;align=left;overflow=fill;fontSize=12;fontFamily=Helvetica;html=1;whiteSpace=wrap;" vertex="1" parent="VOGuNjjzXq6FGKE1rpnF-3">
          <mxGeometry x="170" y="270" width="215" height="140" as="geometry" />
        </mxCell>
        <mxCell id="VOGuNjjzXq6FGKE1rpnF-10" value="" style="shape=folder;fontStyle=1;spacingTop=10;tabWidth=40;tabHeight=14;tabPosition=left;html=1;whiteSpace=wrap;" vertex="1" parent="VOGuNjjzXq6FGKE1rpnF-3">
          <mxGeometry x="45" y="460" width="480" height="270" as="geometry" />
        </mxCell>
        <mxCell id="VOGuNjjzXq6FGKE1rpnF-11" value="&lt;p style=&quot;margin:0px;margin-top:4px;text-align:center;&quot;&gt;&lt;b&gt;User&lt;/b&gt;&lt;/p&gt;&lt;hr size=&quot;1&quot;&gt;&lt;p style=&quot;margin:0px;margin-left:4px;&quot;&gt;&lt;span style=&quot;background-color: initial;&quot;&gt;- fullName: String&lt;/span&gt;&lt;/p&gt;&lt;p style=&quot;margin:0px;margin-left:4px;&quot;&gt;&lt;span style=&quot;background-color: initial;&quot;&gt;- login: String&lt;/span&gt;&lt;/p&gt;&lt;p style=&quot;margin:0px;margin-left:4px;&quot;&gt;&lt;span style=&quot;background-color: initial;&quot;&gt;- hashPassword: long&lt;/span&gt;&lt;/p&gt;&lt;p style=&quot;margin:0px;margin-left:4px;&quot;&gt;&lt;span style=&quot;background-color: initial;&quot;&gt;- email: String&lt;/span&gt;&lt;/p&gt;&lt;p style=&quot;margin:0px;margin-left:4px;&quot;&gt;&lt;span style=&quot;background-color: initial;&quot;&gt;- key: String&lt;/span&gt;&lt;/p&gt;&lt;hr size=&quot;1&quot;&gt;&lt;p style=&quot;margin:0px;margin-left:4px;&quot;&gt;+ User(String, String, long, String)&lt;/p&gt;&lt;p style=&quot;margin:0px;margin-left:4px;&quot;&gt;+ getFullName(): String&lt;/p&gt;&lt;p style=&quot;margin:0px;margin-left:4px;&quot;&gt;+ getLogin(): String&lt;/p&gt;&lt;p style=&quot;margin:0px;margin-left:4px;&quot;&gt;+ getHashPasword(): long&lt;/p&gt;&lt;p style=&quot;margin:0px;margin-left:4px;&quot;&gt;+ getEmail(): String&lt;/p&gt;&lt;p style=&quot;margin:0px;margin-left:4px;&quot;&gt;+ getKey(): String&lt;/p&gt;" style="verticalAlign=top;align=left;overflow=fill;fontSize=12;fontFamily=Helvetica;html=1;whiteSpace=wrap;" vertex="1" parent="VOGuNjjzXq6FGKE1rpnF-3">
          <mxGeometry x="60" y="495" width="220" height="205" as="geometry" />
        </mxCell>
        <mxCell id="VOGuNjjzXq6FGKE1rpnF-12" value="&lt;p style=&quot;margin:0px;margin-top:4px;text-align:center;&quot;&gt;&lt;b&gt;Token&lt;/b&gt;&lt;/p&gt;&lt;hr size=&quot;1&quot;&gt;&lt;p style=&quot;margin:0px;margin-left:4px;&quot;&gt;- token:&amp;nbsp; String&lt;/p&gt;&lt;hr size=&quot;1&quot;&gt;&lt;p style=&quot;margin:0px;margin-left:4px;&quot;&gt;+ Token(String)&lt;/p&gt;&lt;p style=&quot;margin:0px;margin-left:4px;&quot;&gt;+ getToken(): Token&lt;/p&gt;" style="verticalAlign=top;align=left;overflow=fill;fontSize=12;fontFamily=Helvetica;html=1;whiteSpace=wrap;" vertex="1" parent="VOGuNjjzXq6FGKE1rpnF-3">
          <mxGeometry x="320" y="495" width="160" height="90" as="geometry" />
        </mxCell>
        <mxCell id="VOGuNjjzXq6FGKE1rpnF-19" value="1" style="endArrow=open;html=1;endSize=12;startArrow=diamondThin;startSize=14;startFill=0;edgeStyle=orthogonalEdgeStyle;align=left;verticalAlign=bottom;rounded=0;entryX=0.622;entryY=1.01;entryDx=0;entryDy=0;entryPerimeter=0;exitX=0.75;exitY=0;exitDx=0;exitDy=0;" edge="1" parent="VOGuNjjzXq6FGKE1rpnF-3" source="VOGuNjjzXq6FGKE1rpnF-8" target="VOGuNjjzXq6FGKE1rpnF-6">
          <mxGeometry x="-1" y="3" relative="1" as="geometry">
            <mxPoint x="230" y="420" as="sourcePoint" />
            <mxPoint x="390" y="420" as="targetPoint" />
          </mxGeometry>
        </mxCell>
        <mxCell id="VOGuNjjzXq6FGKE1rpnF-20" value="1" style="endArrow=open;html=1;endSize=12;startArrow=diamondThin;startSize=14;startFill=0;edgeStyle=orthogonalEdgeStyle;align=left;verticalAlign=bottom;rounded=0;entryX=0.377;entryY=1.01;entryDx=0;entryDy=0;entryPerimeter=0;exitX=0.25;exitY=0;exitDx=0;exitDy=0;" edge="1" parent="VOGuNjjzXq6FGKE1rpnF-3" source="VOGuNjjzXq6FGKE1rpnF-8" target="VOGuNjjzXq6FGKE1rpnF-5">
          <mxGeometry x="-1" y="3" relative="1" as="geometry">
            <mxPoint x="230" y="420" as="sourcePoint" />
            <mxPoint x="390" y="420" as="targetPoint" />
          </mxGeometry>
        </mxCell>
        <mxCell id="VOGuNjjzXq6FGKE1rpnF-4" value="Data" style="swimlane;startSize=20;html=1;" vertex="1" parent="VOGuNjjzXq6FGKE1rpnF-1">
          <mxGeometry x="930" y="20" width="440" height="760" as="geometry" />
        </mxCell>
        <mxCell id="VOGuNjjzXq6FGKE1rpnF-14" value="&lt;p style=&quot;border-color: var(--border-color); margin: 4px 0px 0px; text-align: center;&quot;&gt;&lt;b style=&quot;border-color: var(--border-color);&quot;&gt;AccessReposity&lt;/b&gt;&lt;/p&gt;&lt;hr size=&quot;1&quot;&gt;&lt;div style=&quot;height:2px;&quot;&gt;&lt;/div&gt;&lt;hr size=&quot;1&quot;&gt;&lt;div style=&quot;height:2px;&quot;&gt;+ getUser(int): User&lt;/div&gt;&lt;div style=&quot;height:2px;&quot;&gt;&lt;br&gt;&lt;/div&gt;&lt;div style=&quot;height:2px;&quot;&gt;&lt;br&gt;&lt;/div&gt;&lt;div style=&quot;height:2px;&quot;&gt;&lt;br&gt;&lt;/div&gt;&lt;div style=&quot;height:2px;&quot;&gt;&lt;br&gt;&lt;/div&gt;&lt;div style=&quot;height:2px;&quot;&gt;&lt;br&gt;&lt;/div&gt;&lt;div style=&quot;height:2px;&quot;&gt;&lt;br&gt;&lt;/div&gt;&lt;div style=&quot;height:2px;&quot;&gt;+ getRobot(int): Robot&lt;/div&gt;&lt;div style=&quot;height:2px;&quot;&gt;&lt;br&gt;&lt;/div&gt;&lt;div style=&quot;height:2px;&quot;&gt;&lt;br&gt;&lt;/div&gt;" style="verticalAlign=top;align=left;overflow=fill;fontSize=12;fontFamily=Helvetica;html=1;whiteSpace=wrap;" vertex="1" parent="VOGuNjjzXq6FGKE1rpnF-4">
          <mxGeometry x="110" y="90" width="250" height="100" as="geometry" />
        </mxCell>
        <mxCell id="VOGuNjjzXq6FGKE1rpnF-15" style="edgeStyle=orthogonalEdgeStyle;rounded=0;orthogonalLoop=1;jettySize=auto;html=1;entryX=0;entryY=0;entryDx=0;entryDy=142;entryPerimeter=0;" edge="1" parent="VOGuNjjzXq6FGKE1rpnF-1" source="VOGuNjjzXq6FGKE1rpnF-7" target="VOGuNjjzXq6FGKE1rpnF-10">
          <mxGeometry relative="1" as="geometry">
            <Array as="points">
              <mxPoint x="320" y="140" />
              <mxPoint x="320" y="622" />
            </Array>
          </mxGeometry>
        </mxCell>
        <mxCell id="VOGuNjjzXq6FGKE1rpnF-16" style="edgeStyle=orthogonalEdgeStyle;rounded=0;orthogonalLoop=1;jettySize=auto;html=1;entryX=0;entryY=0;entryDx=480;entryDy=142;entryPerimeter=0;" edge="1" parent="VOGuNjjzXq6FGKE1rpnF-1" source="VOGuNjjzXq6FGKE1rpnF-14" target="VOGuNjjzXq6FGKE1rpnF-10">
          <mxGeometry relative="1" as="geometry" />
        </mxCell>
        <mxCell id="VOGuNjjzXq6FGKE1rpnF-17" value="" style="endArrow=block;dashed=1;endFill=0;endSize=12;html=1;rounded=0;exitX=0;exitY=0.25;exitDx=0;exitDy=0;" edge="1" parent="VOGuNjjzXq6FGKE1rpnF-1" source="VOGuNjjzXq6FGKE1rpnF-14">
          <mxGeometry width="160" relative="1" as="geometry">
            <mxPoint x="590" y="440" as="sourcePoint" />
            <mxPoint x="880" y="135" as="targetPoint" />
          </mxGeometry>
        </mxCell>
      </root>
    </mxGraphModel>
  </diagram>
</mxfile>
